<?xml version="1.0" encoding="UTF-8"?>
<svg id="Layer_1" xmlns="http://www.w3.org/2000/svg" version="1.1" viewBox="0 0 87 87">
  <!-- Generator: Adobe Illustrator 29.0.1, SVG Export Plug-In . SVG Version: 2.1.0 Build 192)  -->
  <defs>
    <style>
      .st0 {
        fill: #3950ff;
      }
    </style>
  </defs>
  <path class="st0" d="M23.1,71.6c0-4.5,4.1-9.3,8.5-7.8,7,2.3,9.8,2.1,11.7,2.2,13.8.3,21-8.9,23.6-12.9,0-.1.2-.2.2-.4,0-.1.4-.6.4-.8,1.3-2.7,4.1-4.6,7.4-4.6s8.2,3.7,8.2,8.2-.3,2.5-.9,3.6c0,.2-.3.7-.4.9-13.3,24.2-39.9,22-48.8,20.5-.3,0-.6-.1-.9-.2-.2,0-1.3-.3-1.7-.4-3.9-.9-7.5-4.4-7.5-8.4Z"/>
  <path class="st0" d="M21.5,41.6c5.9,0,10.7-4.8,10.7-10.7s-4.8-10.7-10.7-10.7-10.7,4.8-10.7,10.7,4.8,10.7,10.7,10.7Z"/>
  <path class="st0" d="M63.9,41.6c5.9,0,10.7-4.8,10.7-10.7s-4.8-10.7-10.7-10.7-10.7,4.8-10.7,10.7,4.8,10.7,10.7,10.7Z"/>
  <path class="st0" d="M63.9,71.6c0-4.5-3.9-7.8-8.5-7.8s-.7,0-.9,0c-1.2.5-4.6,1.3-4.6,1.4-17.8,3.7-26.8-7.5-29.8-12.2,0-.1-.2-.2-.2-.4,0-.1-.4-.6-.4-.8-1.3-2.7-4.1-4.6-7.4-4.6s-8.2,3.7-8.2,8.2.3,2.5.9,3.6c0,.2.3.7.4.9,12.6,24.1,39.9,22,48.8,20.5.3,0,.6-.1.9-.2.2,0,1.3-.3,1.7-.4,3.9-.9,7.5-4.4,7.5-8.4h0Z"/>
</svg>