<svg width="154" height="173" viewBox="0 0 154 173" fill="none" xmlns="http://www.w3.org/2000/svg">
<path d="M24.0849 123.94C24.7089 125.212 25.0209 126.628 25.0209 128.188C25.0209 129.748 24.7089 131.164 24.0849 132.436C23.4609 133.684 22.6569 134.68 21.6729 135.424C19.6809 136.96 17.6169 137.728 15.4809 137.728H10.9809V141.796C10.9809 142.348 10.9569 142.768 10.9089 143.056C10.8849 143.32 10.7769 143.632 10.5849 143.992C10.2489 144.64 9.31289 144.964 7.77689 144.964C6.09689 144.964 5.11289 144.52 4.82489 143.632C4.68089 143.224 4.60889 142.6 4.60889 141.76V121.78C4.60889 121.228 4.62089 120.82 4.64489 120.556C4.69289 120.268 4.81289 119.944 5.00489 119.584C5.34089 118.936 6.27689 118.612 7.81289 118.612H15.5169C17.6289 118.612 19.6809 119.38 21.6729 120.916C22.6569 121.66 23.4609 122.668 24.0849 123.94ZM15.5169 131.356C16.2369 131.356 16.9449 131.092 17.6409 130.564C18.3369 130.036 18.6849 129.244 18.6849 128.188C18.6849 127.132 18.3369 126.34 17.6409 125.812C16.9449 125.26 16.2249 124.984 15.4809 124.984H10.9809V131.356H15.5169Z" fill="white"/>
<path d="M33.727 138.628H44.815C45.367 138.628 45.775 138.652 46.039 138.7C46.327 138.724 46.651 138.832 47.011 139.024C47.659 139.36 47.983 140.296 47.983 141.832C47.983 143.512 47.539 144.496 46.651 144.784C46.243 144.928 45.619 145 44.779 145H30.523C28.843 145 27.859 144.544 27.571 143.632C27.427 143.248 27.355 142.636 27.355 141.796V121.78C27.355 120.556 27.583 119.728 28.039 119.296C28.495 118.84 29.359 118.612 30.631 118.612H44.815C45.367 118.612 45.775 118.636 46.039 118.684C46.327 118.708 46.651 118.816 47.011 119.008C47.659 119.344 47.983 120.28 47.983 121.816C47.983 123.496 47.539 124.48 46.651 124.768C46.243 124.912 45.619 124.984 44.779 124.984H33.727V128.62H40.855C41.407 128.62 41.815 128.644 42.079 128.692C42.367 128.716 42.691 128.824 43.051 129.016C43.699 129.352 44.023 130.288 44.023 131.824C44.023 133.504 43.567 134.488 42.655 134.776C42.247 134.92 41.623 134.992 40.783 134.992H33.727V138.628Z" fill="white"/>
<path d="M62.696 118.288C66.248 118.288 69.332 119.572 71.948 122.14C74.564 124.708 75.872 127.9 75.872 131.716C75.872 135.508 74.624 138.748 72.128 141.436C69.632 144.1 66.56 145.432 62.912 145.432C59.264 145.432 56.156 144.112 53.588 141.472C51.044 138.832 49.772 135.688 49.772 132.04C49.772 130.048 50.132 128.188 50.852 126.46C51.572 124.708 52.532 123.244 53.732 122.068C54.932 120.892 56.312 119.968 57.872 119.296C59.432 118.624 61.04 118.288 62.696 118.288ZM56.144 131.86C56.144 133.996 56.828 135.736 58.196 137.08C59.588 138.4 61.136 139.06 62.84 139.06C64.544 139.06 66.08 138.412 67.448 137.116C68.816 135.82 69.5 134.08 69.5 131.896C69.5 129.712 68.804 127.96 67.412 126.64C66.044 125.32 64.508 124.66 62.804 124.66C61.1 124.66 59.564 125.332 58.196 126.676C56.828 127.996 56.144 129.724 56.144 131.86Z" fill="white"/>
<path d="M97.7021 123.94C98.3261 125.212 98.6381 126.628 98.6381 128.188C98.6381 129.748 98.3261 131.164 97.7021 132.436C97.0781 133.684 96.2741 134.68 95.2901 135.424C93.2981 136.96 91.2341 137.728 89.0981 137.728H84.5981V141.796C84.5981 142.348 84.5741 142.768 84.5261 143.056C84.5021 143.32 84.3941 143.632 84.2021 143.992C83.8661 144.64 82.9301 144.964 81.3941 144.964C79.7141 144.964 78.7301 144.52 78.4421 143.632C78.2981 143.224 78.2261 142.6 78.2261 141.76V121.78C78.2261 121.228 78.2381 120.82 78.2621 120.556C78.3101 120.268 78.4301 119.944 78.6221 119.584C78.9581 118.936 79.8941 118.612 81.4301 118.612H89.1341C91.2461 118.612 93.2981 119.38 95.2901 120.916C96.2741 121.66 97.0781 122.668 97.7021 123.94ZM89.1341 131.356C89.8541 131.356 90.5621 131.092 91.2581 130.564C91.9541 130.036 92.3021 129.244 92.3021 128.188C92.3021 127.132 91.9541 126.34 91.2581 125.812C90.5621 125.26 89.8421 124.984 89.0981 124.984H84.5981V131.356H89.1341Z" fill="white"/>
<path d="M107.344 139.672H117.136C117.928 139.672 118.504 139.768 118.864 139.96C119.224 140.128 119.464 140.404 119.584 140.788C119.704 141.172 119.764 141.688 119.764 142.336C119.764 142.96 119.704 143.464 119.584 143.848C119.464 144.232 119.26 144.496 118.972 144.64C118.516 144.88 117.892 145 117.1 145H104.14C102.46 145 101.476 144.544 101.188 143.632C101.044 143.248 100.972 142.636 100.972 141.796V121.78C100.972 121.228 100.984 120.82 101.008 120.556C101.056 120.268 101.176 119.944 101.368 119.584C101.704 118.936 102.64 118.612 104.176 118.612C105.856 118.612 106.852 119.056 107.164 119.944C107.284 120.352 107.344 120.976 107.344 121.816V139.672Z" fill="white"/>
<path d="M128.473 138.628H139.561C140.113 138.628 140.521 138.652 140.785 138.7C141.073 138.724 141.397 138.832 141.757 139.024C142.405 139.36 142.729 140.296 142.729 141.832C142.729 143.512 142.285 144.496 141.397 144.784C140.989 144.928 140.365 145 139.525 145H125.269C123.589 145 122.605 144.544 122.317 143.632C122.173 143.248 122.101 142.636 122.101 141.796V121.78C122.101 120.556 122.329 119.728 122.785 119.296C123.241 118.84 124.105 118.612 125.377 118.612H139.561C140.113 118.612 140.521 118.636 140.785 118.684C141.073 118.708 141.397 118.816 141.757 119.008C142.405 119.344 142.729 120.28 142.729 121.816C142.729 123.496 142.285 124.48 141.397 124.768C140.989 124.912 140.365 124.984 139.525 124.984H128.473V128.62H135.601C136.153 128.62 136.561 128.644 136.825 128.692C137.113 128.716 137.437 128.824 137.797 129.016C138.445 129.352 138.769 130.288 138.769 131.824C138.769 133.504 138.313 134.488 137.401 134.776C136.993 134.92 136.369 134.992 135.529 134.992H128.473V138.628Z" fill="white"/>
<path d="M37.9531 92.6331C37.9531 84.456 45.3831 76.0021 53.1452 78.5756C65.667 82.7126 70.8002 82.3529 74.2592 82.4497C99.0121 83.0585 112.004 66.5243 116.764 59.205C116.916 58.9836 117.041 58.7622 117.179 58.5547C117.304 58.361 117.829 57.4616 117.968 57.1987C120.375 52.2731 125.425 48.8694 131.278 48.8694C139.455 48.8694 146.083 55.4969 146.083 63.6741C146.083 66.0401 145.515 68.2538 144.533 70.2324C144.395 70.5091 143.966 71.5745 143.841 71.8097C119.988 115.352 72.2114 111.353 56.1338 108.628C55.5666 108.531 55.0408 108.434 54.5565 108.351C54.2244 108.282 52.1767 107.853 51.4572 107.687C44.4146 106.082 37.9531 99.7034 37.9531 92.6331Z" fill="#38CEFF"/>
<path d="M35.089 38.5475C45.7336 38.5475 54.3627 29.9184 54.3627 19.2738C54.3627 8.62916 45.7336 0 35.089 0C24.4443 0 15.8152 8.62916 15.8152 19.2738C15.8152 29.9184 24.4443 38.5475 35.089 38.5475Z" fill="white"/>
<path d="M111.299 38.5475C121.943 38.5475 130.572 29.9184 130.572 19.2738C130.572 8.62916 121.943 0 111.299 0C100.654 0 92.0249 8.62916 92.0249 19.2738C92.0249 29.9184 100.654 38.5475 111.299 38.5475Z" fill="#38CEFF"/>
<path d="M111.299 92.6332C111.299 84.456 104.284 78.5756 96.1064 78.5756C95.5391 78.5756 94.9303 78.4373 94.4184 78.6725C92.26 79.6272 86.2274 81.08 86.089 81.1077C54.0445 87.8459 37.9254 67.5482 32.4878 59.1912C32.3356 58.9698 32.211 58.7484 32.0727 58.5409C31.9482 58.3472 31.4224 57.4478 31.284 57.185C28.8765 52.2593 23.8263 48.8556 17.9736 48.8556C9.79647 48.8556 3.16895 55.4831 3.16895 63.6603C3.16895 66.0263 3.73623 68.24 4.7186 70.2186C4.85696 70.4953 5.28588 71.5607 5.41041 71.7959C28.0187 115.075 77.0402 111.34 93.1178 108.614C93.6851 108.517 94.2109 108.42 94.6951 108.337C95.0272 108.268 97.0749 107.839 97.7944 107.673C104.837 106.068 111.299 99.6896 111.299 92.6193V92.6332Z" fill="white"/>
<path d="M10.4893 150.414C9.65072 150.414 8.87207 150.616 8.15332 151.021C7.44954 151.41 6.82812 151.956 6.28906 152.66C5.76497 153.349 5.35319 154.165 5.05371 155.108C4.75423 156.052 4.60449 157.062 4.60449 158.141C4.60449 159.249 4.85156 160.274 5.3457 161.218C5.85482 162.146 6.55111 162.962 7.43457 163.666C8.33301 164.355 9.38118 164.894 10.5791 165.283C11.792 165.673 13.1097 165.867 14.5322 165.867C15.5654 165.867 16.5387 165.777 17.4521 165.598C18.3805 165.403 19.1891 165.148 19.8779 164.834C20.5667 164.52 21.1133 164.153 21.5176 163.733C21.9219 163.299 22.124 162.842 22.124 162.363C22.124 161.989 22.0566 161.682 21.9219 161.442C21.7871 161.188 21.6299 160.963 21.4502 160.769C21.2855 160.559 21.1357 160.357 21.001 160.162C20.8662 159.952 20.7988 159.69 20.7988 159.376C20.7988 159.076 20.8737 158.792 21.0234 158.522C21.1732 158.253 21.3753 158.013 21.6299 157.804C21.8994 157.594 22.1989 157.429 22.5283 157.31C22.8727 157.19 23.2246 157.13 23.584 157.13C24.0182 157.13 24.4225 157.242 24.7969 157.467C25.1862 157.691 25.5156 158.006 25.7852 158.41C26.0697 158.799 26.2868 159.264 26.4365 159.803C26.6012 160.327 26.6836 160.888 26.6836 161.487C26.6836 162.7 26.3617 163.831 25.7178 164.879C25.0739 165.912 24.1829 166.803 23.0449 167.552C21.9069 168.3 20.5592 168.892 19.002 169.326C17.4447 169.745 15.7526 169.955 13.9258 169.955C11.9043 169.955 10.04 169.686 8.33301 169.146C6.62598 168.592 5.15104 167.829 3.9082 166.855C2.68034 165.882 1.72201 164.729 1.0332 163.396C0.344401 162.064 0 160.604 0 159.017C0 157.28 0.299479 155.64 0.898438 154.098C1.51237 152.555 2.34342 151.208 3.3916 150.055C4.43978 148.902 5.66016 147.988 7.05273 147.314C8.46029 146.641 9.95768 146.304 11.5449 146.304C12.2487 146.304 12.8926 146.386 13.4766 146.551C14.0755 146.701 14.5921 146.918 15.0264 147.202C15.4606 147.487 15.7975 147.824 16.0371 148.213C16.2917 148.587 16.4189 148.999 16.4189 149.448C16.4189 149.808 16.3366 150.152 16.1719 150.481C16.0221 150.796 15.82 151.08 15.5654 151.335C15.3109 151.575 15.0114 151.769 14.667 151.919C14.3376 152.069 13.9857 152.144 13.6113 152.144C13.222 152.144 12.9076 152.054 12.668 151.874C12.4434 151.694 12.2337 151.5 12.0391 151.29C11.8444 151.065 11.6348 150.863 11.4102 150.684C11.1855 150.504 10.8786 150.414 10.4893 150.414Z" fill="#38CEFF"/>
<path d="M26.2568 162.543C26.2568 162.288 26.2868 162.004 26.3467 161.689C26.4066 161.375 26.4365 161.031 26.4365 160.656C26.4365 160.402 26.3242 160.207 26.0996 160.072C25.89 159.938 25.6504 159.788 25.3809 159.623C25.1113 159.458 24.8643 159.249 24.6396 158.994C24.43 158.74 24.3252 158.373 24.3252 157.894C24.3252 157.549 24.415 157.205 24.5947 156.86C24.7894 156.516 25.0664 156.201 25.4258 155.917C26.3092 155.258 27.2227 154.667 28.166 154.143C29.1243 153.618 30.0752 153.177 31.0186 152.817C31.9769 152.458 32.9202 152.181 33.8486 151.986C34.777 151.792 35.668 151.694 36.5215 151.694C37.959 151.694 39.3066 151.964 40.5645 152.503C41.8372 153.027 42.9378 153.753 43.8662 154.682C44.8096 155.595 45.5508 156.673 46.0898 157.916C46.6439 159.144 46.9209 160.462 46.9209 161.869C46.9209 163.247 46.6289 164.557 46.0449 165.8C45.4759 167.028 44.7048 168.106 43.7314 169.034C42.7581 169.963 41.6126 170.696 40.2949 171.235C38.9922 171.789 37.6146 172.066 36.1621 172.066C34.7396 172.066 33.4219 171.827 32.209 171.348C30.9961 170.868 29.9479 170.21 29.0645 169.371C28.181 168.518 27.4922 167.514 26.998 166.361C26.5039 165.193 26.2568 163.921 26.2568 162.543ZM36.6562 168.023C37.2852 168.023 37.9365 167.896 38.6104 167.642C39.2842 167.387 39.8981 167.02 40.4521 166.541C41.0212 166.047 41.4854 165.448 41.8447 164.744C42.2191 164.04 42.4062 163.247 42.4062 162.363C42.4062 161.465 42.2415 160.626 41.9121 159.848C41.5827 159.069 41.126 158.395 40.542 157.826C39.973 157.242 39.2917 156.785 38.498 156.456C37.7194 156.127 36.8734 155.962 35.96 155.962C34.2979 155.962 33.0251 156.396 32.1416 157.265C31.2581 158.118 30.8164 159.436 30.8164 161.218C30.8164 162.191 30.9587 163.097 31.2432 163.936C31.5426 164.759 31.9544 165.478 32.4785 166.092C33.0026 166.691 33.6165 167.162 34.3203 167.507C35.0391 167.851 35.8177 168.023 36.6562 168.023Z" fill="#38CEFF"/>
<path d="M50.2451 151.874C50.2451 151.649 50.3424 151.432 50.5371 151.223C50.7318 150.998 50.9863 150.803 51.3008 150.639C51.6152 150.459 51.9671 150.317 52.3564 150.212C52.7607 150.092 53.165 150.032 53.5693 150.032C53.7939 150.032 53.9811 150.092 54.1309 150.212C54.2956 150.332 54.4378 150.564 54.5576 150.908C54.6774 151.238 54.7822 151.709 54.8721 152.323C54.9769 152.922 55.0742 153.708 55.1641 154.682C55.224 154.981 55.2764 155.213 55.3213 155.378C55.3812 155.528 55.4561 155.603 55.5459 155.603C55.6807 155.603 55.8154 155.37 55.9502 154.906C57.0433 151.747 58.623 150.167 60.6895 150.167C61.6478 150.167 62.5163 150.466 63.2949 151.065C64.0885 151.664 64.8223 152.645 65.4961 154.008C66.1849 155.355 66.8363 157.137 67.4502 159.354C68.0641 161.555 68.6781 164.272 69.292 167.507C69.3219 167.672 69.3444 167.821 69.3594 167.956C69.3743 168.091 69.3818 168.218 69.3818 168.338C69.3818 168.682 69.2995 168.982 69.1348 169.236C68.985 169.476 68.7829 169.678 68.5283 169.843C68.2738 169.993 67.9893 170.105 67.6748 170.18C67.3604 170.27 67.0459 170.314 66.7314 170.314C66.1025 170.314 65.6458 170.247 65.3613 170.112C65.0918 169.978 64.9196 169.723 64.8447 169.349C64.4105 167.073 63.9837 165.051 63.5645 163.284C63.1602 161.517 62.7559 160.035 62.3516 158.837C61.9622 157.624 61.5729 156.703 61.1836 156.074C60.7943 155.445 60.4049 155.131 60.0156 155.131C59.6263 155.131 59.2594 155.378 58.915 155.872C58.5856 156.351 58.2637 157.107 57.9492 158.141C57.6348 159.174 57.3278 160.484 57.0283 162.071C56.7438 163.659 56.4668 165.553 56.1973 167.754C56.1224 168.353 55.8229 168.832 55.2988 169.191C54.7747 169.551 54.1084 169.73 53.2998 169.73C52.7607 169.73 52.349 169.618 52.0645 169.394C51.7799 169.169 51.6227 168.862 51.5928 168.473C51.458 165.358 51.3083 162.798 51.1436 160.791C50.9938 158.77 50.8516 157.152 50.7168 155.939C50.582 154.712 50.4697 153.798 50.3799 153.199C50.29 152.6 50.2451 152.159 50.2451 151.874Z" fill="#38CEFF"/>
<path d="M72.1221 151.874C72.1221 151.649 72.2194 151.432 72.4141 151.223C72.6087 150.998 72.8633 150.803 73.1777 150.639C73.4922 150.459 73.8441 150.317 74.2334 150.212C74.6377 150.092 75.042 150.032 75.4463 150.032C75.6709 150.032 75.8581 150.092 76.0078 150.212C76.1725 150.332 76.3148 150.564 76.4346 150.908C76.5544 151.238 76.6592 151.709 76.749 152.323C76.8538 152.922 76.9512 153.708 77.041 154.682C77.1009 154.981 77.1533 155.213 77.1982 155.378C77.2581 155.528 77.333 155.603 77.4229 155.603C77.5576 155.603 77.6924 155.37 77.8271 154.906C78.9202 151.747 80.5 150.167 82.5664 150.167C83.5247 150.167 84.3932 150.466 85.1719 151.065C85.9655 151.664 86.6992 152.645 87.373 154.008C88.0618 155.355 88.7132 157.137 89.3271 159.354C89.9411 161.555 90.555 164.272 91.1689 167.507C91.1989 167.672 91.2214 167.821 91.2363 167.956C91.2513 168.091 91.2588 168.218 91.2588 168.338C91.2588 168.682 91.1764 168.982 91.0117 169.236C90.862 169.476 90.6598 169.678 90.4053 169.843C90.1507 169.993 89.8662 170.105 89.5518 170.18C89.2373 170.27 88.9229 170.314 88.6084 170.314C87.9795 170.314 87.5228 170.247 87.2383 170.112C86.9688 169.978 86.7965 169.723 86.7217 169.349C86.2874 167.073 85.8607 165.051 85.4414 163.284C85.0371 161.517 84.6328 160.035 84.2285 158.837C83.8392 157.624 83.4499 156.703 83.0605 156.074C82.6712 155.445 82.2819 155.131 81.8926 155.131C81.5033 155.131 81.1364 155.378 80.792 155.872C80.4626 156.351 80.1406 157.107 79.8262 158.141C79.5117 159.174 79.2048 160.484 78.9053 162.071C78.6208 163.659 78.3438 165.553 78.0742 167.754C77.9993 168.353 77.6999 168.832 77.1758 169.191C76.6517 169.551 75.9854 169.73 75.1768 169.73C74.6377 169.73 74.2259 169.618 73.9414 169.394C73.6569 169.169 73.4997 168.862 73.4697 168.473C73.335 165.358 73.1852 162.798 73.0205 160.791C72.8708 158.77 72.7285 157.152 72.5938 155.939C72.459 154.712 72.3467 153.798 72.2568 153.199C72.167 152.6 72.1221 152.159 72.1221 151.874Z" fill="#38CEFF"/>
<path d="M112.731 165.081C113.166 164.707 113.592 164.52 114.012 164.52C114.251 164.52 114.468 164.579 114.663 164.699C114.858 164.819 115.075 165.006 115.314 165.261C115.539 165.605 115.696 165.89 115.786 166.114C115.891 166.324 115.943 166.534 115.943 166.743C115.943 167.192 115.719 167.619 115.27 168.023C114.551 168.622 113.772 169.161 112.934 169.641C112.095 170.105 111.219 170.502 110.306 170.831C109.392 171.16 108.449 171.408 107.476 171.572C106.502 171.752 105.536 171.842 104.578 171.842C103.365 171.842 102.227 171.685 101.164 171.37C100.101 171.071 99.1501 170.636 98.3115 170.067C97.488 169.498 96.7917 168.817 96.2227 168.023C95.6536 167.215 95.2493 166.309 95.0098 165.306C94.875 164.886 94.7477 164.617 94.6279 164.497C94.5231 164.362 94.3434 164.295 94.0889 164.295C93.5348 164.295 93.1081 164.16 92.8086 163.891C92.5091 163.621 92.3594 163.232 92.3594 162.723C92.3594 162.513 92.3743 162.378 92.4043 162.318L92.4492 161.869C92.5241 161.33 92.6663 160.941 92.876 160.701C93.1006 160.462 93.445 160.342 93.9092 160.342H94.2461C94.875 160.342 95.3167 160.05 95.5713 159.466C96.0355 158.433 96.627 157.489 97.3457 156.636C98.0645 155.782 98.873 155.056 99.7715 154.457C100.67 153.843 101.628 153.371 102.646 153.042C103.68 152.698 104.728 152.525 105.791 152.525C106.899 152.525 107.932 152.69 108.891 153.02C109.864 153.334 110.71 153.776 111.429 154.345C112.147 154.914 112.709 155.58 113.113 156.344C113.533 157.107 113.742 157.931 113.742 158.814C113.742 159.428 113.622 159.99 113.383 160.499C113.143 161.008 112.799 161.457 112.35 161.847C111.9 162.221 111.354 162.528 110.71 162.768C110.081 163.007 109.362 163.164 108.554 163.239L100.76 164.025C100.46 164.025 100.213 164.1 100.019 164.25C99.8389 164.4 99.749 164.602 99.749 164.856C99.749 165.246 99.8913 165.62 100.176 165.979C100.475 166.339 100.865 166.661 101.344 166.945C101.838 167.215 102.399 167.432 103.028 167.597C103.672 167.761 104.331 167.844 105.005 167.844C105.649 167.844 106.308 167.784 106.981 167.664C107.67 167.529 108.344 167.342 109.003 167.103C109.677 166.863 110.328 166.578 110.957 166.249C111.586 165.905 112.177 165.515 112.731 165.081ZM107.723 159.286C107.947 159.241 108.142 159.136 108.307 158.972C108.471 158.792 108.554 158.575 108.554 158.32C108.554 158.096 108.471 157.886 108.307 157.691C108.142 157.497 107.917 157.325 107.633 157.175C107.348 157.01 107.019 156.883 106.645 156.793C106.27 156.703 105.873 156.658 105.454 156.658C104.84 156.658 104.211 156.748 103.567 156.928C102.924 157.107 102.34 157.347 101.815 157.646C101.291 157.931 100.865 158.253 100.535 158.612C100.206 158.957 100.041 159.301 100.041 159.646C100.041 159.99 100.251 160.162 100.67 160.162C100.924 160.162 101.336 160.132 101.905 160.072C102.474 160.012 103.103 159.945 103.792 159.87C104.481 159.78 105.177 159.683 105.881 159.578C106.585 159.473 107.199 159.376 107.723 159.286Z" fill="#38CEFF"/>
<path d="M125.31 151.47C126.088 151.47 126.844 151.582 127.578 151.807C128.312 152.031 128.956 152.338 129.51 152.728C130.079 153.102 130.535 153.536 130.88 154.03C131.224 154.509 131.396 155.004 131.396 155.513C131.396 155.842 131.329 156.164 131.194 156.479C131.06 156.778 130.88 157.048 130.655 157.287C130.431 157.512 130.176 157.699 129.892 157.849C129.607 157.983 129.308 158.051 128.993 158.051C128.649 158.051 128.334 157.924 128.05 157.669C127.765 157.399 127.458 157.107 127.129 156.793C126.814 156.464 126.455 156.172 126.051 155.917C125.661 155.647 125.19 155.513 124.636 155.513C124.097 155.513 123.61 155.64 123.176 155.895C122.742 156.149 122.375 156.508 122.075 156.973C121.791 157.422 121.566 157.961 121.401 158.59C121.252 159.204 121.177 159.878 121.177 160.611C121.177 162.708 121.574 164.31 122.367 165.418C123.161 166.511 124.299 167.058 125.781 167.058C126.485 167.058 127.084 166.945 127.578 166.721C128.087 166.496 128.529 166.249 128.903 165.979C129.293 165.71 129.645 165.463 129.959 165.238C130.273 165.014 130.595 164.901 130.925 164.901C131.104 164.901 131.284 164.961 131.464 165.081C131.644 165.186 131.801 165.328 131.936 165.508C132.085 165.673 132.205 165.86 132.295 166.069C132.4 166.279 132.452 166.489 132.452 166.698C132.452 167.192 132.205 167.701 131.711 168.226C131.232 168.75 130.61 169.229 129.847 169.663C129.083 170.082 128.229 170.427 127.286 170.696C126.358 170.966 125.452 171.101 124.568 171.101C123.385 171.101 122.3 170.868 121.312 170.404C120.323 169.955 119.47 169.326 118.751 168.518C118.032 167.694 117.471 166.713 117.066 165.575C116.677 164.437 116.482 163.179 116.482 161.802C116.482 160.304 116.7 158.927 117.134 157.669C117.583 156.411 118.197 155.326 118.976 154.412C119.769 153.484 120.705 152.765 121.783 152.256C122.861 151.732 124.037 151.47 125.31 151.47Z" fill="#38CEFF"/>
<path d="M135.103 144.058C135.103 143.264 135.327 142.71 135.776 142.396C136.226 142.066 136.967 141.901 138 141.901C138.374 141.901 138.689 141.939 138.943 142.014C139.213 142.074 139.438 142.193 139.617 142.373C139.812 142.553 139.962 142.792 140.066 143.092C140.186 143.376 140.284 143.743 140.358 144.192C140.538 145.585 140.733 147.022 140.942 148.505C141.167 149.987 141.399 151.477 141.639 152.975C141.729 153.648 142.08 153.985 142.694 153.985C142.859 153.985 143.129 153.97 143.503 153.94C143.892 153.896 144.349 153.851 144.873 153.806C145.397 153.746 145.959 153.686 146.558 153.626C147.172 153.566 147.778 153.514 148.377 153.469C148.991 153.409 149.567 153.364 150.106 153.334C150.66 153.289 151.147 153.267 151.566 153.267C151.896 153.267 152.158 153.334 152.353 153.469C152.547 153.589 152.697 153.753 152.802 153.963C152.922 154.158 152.996 154.382 153.026 154.637C153.071 154.876 153.094 155.123 153.094 155.378C153.094 155.603 153.049 155.835 152.959 156.074C152.884 156.314 152.772 156.531 152.622 156.726C152.487 156.905 152.315 157.055 152.105 157.175C151.896 157.295 151.656 157.354 151.387 157.354C150.084 157.354 148.766 157.399 147.434 157.489C146.116 157.564 144.798 157.669 143.48 157.804C142.807 157.894 142.47 158.23 142.47 158.814C142.47 158.859 142.477 158.919 142.492 158.994C142.507 159.054 142.515 159.106 142.515 159.151C142.694 160.454 142.859 161.674 143.009 162.812C143.174 163.951 143.308 164.969 143.413 165.867C143.533 166.751 143.623 167.492 143.683 168.091C143.757 168.675 143.795 169.064 143.795 169.259C143.795 169.798 143.743 170.247 143.638 170.606C143.533 170.981 143.361 171.28 143.121 171.505C142.882 171.744 142.56 171.909 142.155 171.999C141.766 172.104 141.272 172.156 140.673 172.156C140.104 172.156 139.685 172.021 139.415 171.752C139.146 171.482 138.996 171.071 138.966 170.517C138.876 168.75 138.734 166.975 138.539 165.193C138.344 163.396 138.12 161.607 137.865 159.825C137.73 159.181 137.394 158.859 136.854 158.859C136.81 158.859 136.757 158.867 136.697 158.882C136.637 158.897 136.585 158.904 136.54 158.904C135.612 159.114 134.736 159.324 133.912 159.533C133.089 159.743 132.317 159.967 131.599 160.207C131.194 160.342 130.835 160.439 130.521 160.499C130.206 160.544 129.922 160.566 129.667 160.566C129.323 160.566 129.068 160.417 128.903 160.117C128.739 159.803 128.656 159.413 128.656 158.949C128.656 158.785 128.671 158.597 128.701 158.388C128.731 158.163 128.791 157.946 128.881 157.736C128.956 157.512 129.076 157.31 129.24 157.13C129.39 156.935 129.6 156.778 129.869 156.658C130.498 156.404 131.337 156.142 132.385 155.872C133.433 155.588 134.616 155.326 135.934 155.086C136.233 155.011 136.465 154.891 136.63 154.727C136.81 154.547 136.899 154.285 136.899 153.94C136.899 153.866 136.899 153.791 136.899 153.716C136.899 153.626 136.884 153.536 136.854 153.446C136.615 152.069 136.383 150.818 136.158 149.695C135.949 148.557 135.761 147.584 135.597 146.775C135.447 145.967 135.327 145.33 135.237 144.866C135.147 144.402 135.103 144.132 135.103 144.058Z" fill="#38CEFF"/>
</svg>
